<?xml version="1.0" standalone="no"?>
<!DOCTYPE svg PUBLIC "-//W3C//DTD SVG 20010904//EN"
 "http://www.w3.org/TR/2001/REC-SVG-20010904/DTD/svg10.dtd">
<svg version="1.0" xmlns="http://www.w3.org/2000/svg"
 width="2239.000000pt" height="2239.000000pt" viewBox="0 0 2239.000000 2239.000000"
 preserveAspectRatio="xMidYMid meet">
<metadata>
Created by potrace 1.14, written by Peter Selinger 2001-2017
</metadata>
<g transform="translate(0.000000,2239.000000) scale(0.100000,-0.100000)"
fill="#000000" stroke="none">
<path d="M11149 19341 c-13 -10 -296 -290 -629 -621 -333 -331 -627 -618 -655
-639 -50 -38 -84 -74 -160 -166 -49 -59 -103 -114 -175 -179 -212 -188 -401
-369 -819 -783 -201 -198 -409 -402 -461 -453 -278 -268 -289 -282 -277 -333
8 -30 55 -77 136 -134 165 -117 571 -432 655 -508 6 -5 40 -35 76 -65 36 -30
72 -61 81 -70 9 -8 43 -38 75 -66 118 -103 216 -195 405 -379 91 -90 180 -170
198 -180 63 -32 87 -15 253 178 67 78 126 147 132 152 6 6 36 39 66 75 30 35
62 72 70 80 8 9 29 32 45 51 17 19 64 72 105 119 41 47 89 100 105 119 17 19
39 44 50 56 35 39 129 146 255 290 68 77 139 158 159 181 20 22 61 69 91 104
237 275 255 288 331 225 24 -19 117 -122 190 -209 13 -16 29 -34 34 -40 6 -6
107 -121 225 -256 117 -135 216 -247 219 -250 4 -3 33 -36 66 -75 33 -38 62
-72 65 -75 3 -3 57 -63 120 -135 63 -71 117 -132 120 -135 3 -3 73 -81 155
-175 82 -93 159 -181 171 -193 13 -13 38 -43 56 -68 27 -36 39 -43 67 -44 30
0 47 13 145 109 199 195 277 268 511 477 226 202 611 510 896 717 59 42 111
83 118 90 18 22 20 60 5 85 -8 12 -94 101 -192 196 -97 96 -339 336 -538 533
-452 449 -591 582 -814 778 -25 21 -109 103 -187 181 -78 77 -156 147 -173
154 -22 9 -30 18 -27 30 5 21 -10 50 -26 50 -7 0 -288 275 -623 610 -662 661
-636 638 -695 591z"/>
<path d="M4557 16600 c-21 -4 -46 -15 -55 -24 -16 -16 -14 -22 25 -99 37 -72
87 -236 109 -361 3 -16 7 -32 9 -36 2 -4 7 -22 10 -41 3 -19 13 -63 21 -99 9
-36 18 -76 20 -90 3 -14 14 -68 24 -120 35 -178 50 -255 54 -290 8 -61 17
-113 26 -165 5 -27 12 -75 15 -105 3 -30 8 -62 10 -70 2 -8 6 -42 10 -75 3
-33 7 -71 10 -85 2 -14 7 -52 10 -85 3 -33 8 -76 11 -96 2 -20 6 -58 8 -85 10
-129 17 -212 21 -239 2 -16 7 -79 10 -140 3 -60 8 -139 11 -175 4 -62 10 -188
20 -440 2 -63 6 -412 9 -775 2 -363 7 -721 10 -795 11 -250 29 -468 50 -601 2
-13 6 -49 10 -79 4 -30 9 -64 10 -75 2 -11 7 -38 10 -60 5 -38 9 -59 20 -115
3 -14 8 -41 11 -60 10 -57 43 -206 75 -335 71 -285 152 -527 283 -850 43 -105
238 -502 290 -590 20 -33 39 -67 43 -75 26 -53 230 -371 292 -455 110 -148
212 -284 238 -315 39 -47 200 -236 242 -285 45 -50 470 -475 536 -535 45 -40
240 -209 305 -264 64 -53 194 -149 285 -210 l100 -67 3 30 c2 22 -10 52 -44
108 -317 521 -557 1174 -630 1713 -3 25 -8 53 -9 62 -2 9 -7 48 -11 85 -3 37
-8 79 -10 93 -22 175 -22 630 2 830 18 152 22 188 40 300 18 113 18 114 38
215 9 44 21 94 26 110 5 17 11 44 14 60 19 119 146 514 244 760 91 227 259
586 349 745 11 19 41 76 68 125 27 50 59 107 72 127 13 21 23 40 23 43 0 3 8
18 19 33 10 15 51 83 91 152 40 69 109 175 154 235 68 94 242 330 376 510 20
28 76 103 123 168 227 308 265 356 316 411 31 32 75 77 99 99 54 51 70 99 49
147 -40 95 -483 566 -752 801 -181 158 -446 368 -504 398 -11 6 -25 17 -33 24
-21 20 -284 189 -388 249 -427 248 -853 430 -1310 563 -85 25 -164 47 -175 49
-11 3 -69 19 -130 36 -287 82 -395 100 -580 96 -118 -2 -154 1 -231 20 -236
59 -404 80 -497 64z"/>
<path d="M17687 16604 c-1 -1 -29 -5 -62 -8 -33 -4 -71 -9 -85 -11 -14 -3 -36
-7 -50 -10 -56 -10 -89 -18 -170 -37 -61 -14 -125 -21 -225 -22 -113 -2 -169
-9 -295 -35 -545 -114 -1031 -276 -1485 -497 -109 -53 -168 -84 -350 -184
-114 -63 -386 -237 -481 -309 -12 -9 -32 -23 -44 -31 -26 -17 -292 -224 -330
-257 -14 -12 -36 -31 -50 -43 -110 -94 -179 -159 -341 -320 -259 -258 -414
-434 -454 -515 -41 -82 -21 -128 115 -270 42 -44 94 -105 116 -135 21 -30 44
-62 51 -70 7 -8 37 -49 67 -90 31 -41 59 -79 63 -85 5 -5 61 -82 126 -170 65
-88 124 -167 130 -175 15 -20 65 -87 212 -285 106 -142 152 -215 243 -375 14
-25 44 -76 67 -115 22 -38 44 -77 48 -85 4 -8 13 -24 20 -35 16 -27 82 -144
129 -230 81 -146 229 -455 283 -590 31 -77 60 -149 65 -160 9 -23 22 -55 26
-70 2 -5 25 -73 52 -150 44 -127 113 -360 140 -475 34 -142 52 -228 71 -335
28 -165 30 -182 36 -245 3 -30 8 -65 10 -78 26 -152 26 -863 0 -945 -2 -6 -6
-39 -9 -72 -4 -33 -8 -71 -10 -85 -3 -14 -7 -41 -10 -60 -42 -278 -183 -773
-281 -985 -7 -16 -32 -73 -55 -125 -40 -92 -112 -238 -162 -330 -64 -117 -88
-159 -117 -205 -57 -93 -63 -108 -54 -143 l8 -32 150 121 c83 66 159 128 170
137 11 9 54 44 95 77 88 70 95 76 225 190 185 163 430 403 583 572 377 415
706 894 948 1374 169 336 260 573 404 1044 8 27 57 219 65 255 16 70 65 323
70 355 3 23 8 52 10 65 6 32 43 318 50 394 22 232 28 392 40 1196 8 513 20
999 30 1140 2 36 7 126 10 200 4 74 8 151 10 170 2 19 7 76 10 125 3 50 8 108
10 130 9 103 16 183 20 215 9 73 26 206 30 238 3 17 7 49 10 70 40 273 106
619 186 974 36 159 54 223 69 238 11 11 20 30 20 43 0 12 6 31 13 42 8 11 19
35 25 53 10 29 9 34 -13 48 -18 11 -51 17 -111 18 -47 0 -86 0 -87 0z"/>
<path d="M11144 15473 c-16 -16 -78 -82 -139 -148 -60 -66 -114 -125 -120
-131 -5 -6 -50 -55 -100 -109 -49 -54 -103 -113 -120 -131 -113 -121 -222
-240 -236 -255 -8 -10 -58 -64 -111 -121 -52 -57 -106 -115 -119 -129 -20 -23
-115 -126 -234 -255 -139 -150 -230 -249 -285 -309 -36 -39 -113 -122 -171
-185 -59 -63 -128 -140 -155 -170 -27 -30 -89 -95 -139 -145 -120 -121 -156
-163 -283 -330 -4 -5 -48 -66 -97 -135 -121 -169 -147 -203 -199 -258 -75 -79
-256 -317 -256 -336 0 -3 -13 -24 -29 -48 -67 -102 -185 -337 -266 -533 -39
-94 -126 -323 -129 -340 -1 -5 -19 -62 -40 -125 -59 -182 -141 -515 -180 -730
-18 -103 -24 -142 -36 -235 -6 -44 -13 -91 -15 -105 -2 -14 -6 -54 -10 -90 -3
-36 -8 -81 -10 -100 -29 -227 -34 -739 -11 -925 2 -16 7 -59 11 -95 4 -36 9
-78 11 -95 3 -16 7 -46 9 -65 3 -19 10 -58 15 -86 6 -28 13 -63 16 -77 29
-162 122 -449 205 -632 12 -27 23 -52 24 -55 3 -15 104 -207 147 -280 159
-268 362 -516 572 -695 71 -61 92 -74 83 -53 -57 149 -176 589 -201 748 -4 19
-8 44 -10 56 -2 12 -7 45 -11 75 -4 30 -8 56 -10 59 -2 3 -6 43 -10 90 -4 47
-8 87 -10 90 -6 9 -18 284 -18 395 0 101 10 336 17 395 2 14 7 57 11 95 4 39
8 77 10 85 2 8 6 35 9 60 4 25 8 54 10 65 3 11 5 29 5 39 1 11 3 17 6 14 7 -7
13 -37 20 -107 4 -31 8 -63 10 -71 2 -8 7 -35 10 -60 9 -61 54 -280 59 -289 3
-4 7 -21 10 -37 7 -37 47 -168 81 -264 30 -83 123 -285 129 -279 2 2 6 81 10
174 5 162 8 205 21 355 10 116 19 197 41 363 6 47 42 268 50 307 3 14 8 41 10
60 3 19 10 53 16 75 6 22 12 49 14 60 8 40 30 136 49 207 3 10 7 28 10 40 16
76 80 277 148 468 41 115 178 395 324 665 33 61 77 142 98 180 59 108 156 277
177 308 11 15 16 27 12 27 -4 0 0 8 8 18 8 9 30 44 49 77 49 87 46 81 144 245
50 83 98 163 107 178 10 15 21 34 25 42 4 8 40 68 80 133 40 65 73 121 73 123
0 3 5 10 10 17 6 7 86 134 177 282 91 149 209 340 261 425 53 85 166 271 251
413 86 142 160 259 165 260 5 1 26 -25 46 -58 266 -431 410 -669 410 -676 0
-5 4 -9 9 -9 5 0 11 -6 13 -12 2 -7 59 -104 128 -216 69 -111 132 -214 140
-227 8 -14 39 -64 69 -112 321 -521 725 -1210 842 -1438 12 -22 33 -62 48 -90
52 -97 226 -440 232 -460 4 -11 28 -78 53 -150 119 -331 215 -736 271 -1135 4
-25 8 -56 10 -70 2 -14 7 -50 10 -80 3 -30 8 -66 10 -80 2 -14 6 -54 10 -90 3
-36 8 -85 10 -110 5 -44 7 -64 20 -235 5 -69 11 -158 15 -230 4 -70 199 456
226 609 3 17 11 58 18 91 8 33 17 83 22 110 4 28 9 57 10 65 2 8 6 39 10 69 3
30 8 62 9 70 2 9 4 31 4 50 1 36 9 38 15 4 14 -72 22 -122 30 -203 4 -36 9
-76 11 -90 25 -149 25 -814 0 -893 -2 -6 -6 -37 -9 -67 -8 -74 -16 -134 -32
-225 -4 -27 -50 -246 -59 -285 -18 -79 -74 -278 -106 -375 -21 -66 -39 -124
-39 -128 0 -19 266 248 367 368 197 233 342 468 474 766 37 86 134 364 143
411 2 13 9 41 15 63 23 88 64 318 76 430 4 33 8 71 11 85 22 134 22 718 -1
920 -2 19 -6 64 -10 100 -3 36 -8 76 -10 90 -3 14 -7 43 -10 65 -6 53 -24 175
-29 200 -2 11 -11 58 -20 105 -60 320 -138 609 -257 960 -132 385 -265 653
-462 930 -51 71 -146 189 -184 228 -29 30 -80 100 -97 134 -10 20 -24 39 -31
42 -8 3 -58 67 -111 143 -159 223 -246 320 -356 395 -33 23 -52 45 -63 74 -18
47 -20 49 -149 189 -51 55 -105 114 -120 130 -46 51 -227 246 -301 324 -38 42
-74 80 -80 87 -10 11 -158 172 -281 304 -33 36 -90 97 -125 135 -36 39 -99
106 -140 150 -86 93 -271 293 -313 339 -15 17 -47 51 -70 76 -23 25 -73 79
-110 120 -161 175 -177 190 -206 190 -17 0 -39 -11 -56 -27z"/>
<path d="M1508 14105 c-2 -2 -111 -6 -243 -9 -247 -7 -322 -10 -460 -20 -155
-12 -200 -15 -252 -21 -28 -3 -78 -8 -110 -10 -32 -2 -74 -6 -93 -9 -96 -12
-172 -18 -243 -20 -58 -1 -81 -6 -94 -19 -20 -20 -24 -14 66 -124 110 -135
126 -155 141 -178 22 -34 113 -158 125 -171 10 -12 102 -143 120 -173 6 -9 50
-76 98 -149 102 -155 187 -290 187 -296 0 -3 13 -24 29 -48 15 -24 43 -70 61
-103 18 -33 43 -76 55 -95 31 -50 130 -230 249 -452 127 -239 377 -754 599
-1233 72 -155 312 -634 384 -765 56 -102 137 -241 236 -405 24 -40 256 -390
271 -410 9 -11 52 -67 95 -125 158 -209 284 -354 486 -555 171 -171 254 -246
405 -367 181 -145 452 -329 615 -418 33 -18 65 -36 70 -40 10 -8 314 -160 370
-185 282 -128 620 -245 947 -329 75 -20 147 -37 160 -40 13 -2 41 -9 63 -14
54 -15 334 -69 420 -82 39 -6 81 -13 95 -15 14 -3 77 -12 140 -20 63 -8 127
-18 143 -21 15 -3 27 -3 27 1 0 4 -27 35 -59 69 -32 33 -80 84 -106 111 -25
28 -106 113 -179 190 -495 522 -834 970 -1125 1485 -36 63 -240 471 -258 515
-21 51 -54 128 -74 172 -10 24 -19 49 -19 56 0 7 -4 17 -9 23 -21 23 -154 428
-222 679 -33 123 -64 186 -128 265 -32 40 -245 287 -296 345 -226 252 -335
367 -654 685 -340 339 -477 467 -534 498 -23 13 -57 40 -75 60 -84 94 -68 101
128 58 85 -18 284 -77 480 -142 113 -37 207 -68 210 -69 76 -19 173 -60 249
-104 112 -66 220 -117 348 -165 l92 -34 -4 92 c-2 50 -7 138 -9 196 -3 58 -8
143 -11 190 -6 108 -17 317 -20 395 -5 112 -15 340 -20 425 -3 47 -7 137 -10
200 -5 126 -18 214 -37 239 -33 44 -67 68 -132 91 -55 20 -181 52 -226 57 -25
3 -82 20 -127 38 -68 27 -209 66 -323 89 -14 3 -101 21 -195 40 -188 38 -475
84 -640 102 -22 2 -53 6 -70 9 -27 4 -71 8 -210 20 -27 3 -88 7 -135 10 -47 4
-107 8 -135 10 -27 3 -165 7 -305 11 -140 3 -270 7 -287 8 -18 2 -34 2 -35 1z"/>
<path d="M20827 14104 c-1 -1 -110 -5 -242 -8 -132 -4 -260 -9 -285 -11 -25
-2 -88 -6 -140 -9 -142 -9 -232 -17 -355 -31 -16 -2 -61 -6 -100 -10 -38 -4
-81 -8 -95 -10 -14 -2 -50 -7 -80 -10 -30 -3 -66 -8 -80 -10 -14 -2 -45 -7
-70 -10 -269 -37 -589 -110 -800 -184 -63 -22 -133 -43 -155 -47 -22 -4 -49
-8 -60 -11 -11 -2 -36 -6 -55 -9 -63 -9 -164 -45 -196 -69 -63 -48 -78 -113
-89 -389 -3 -76 -8 -144 -12 -149 -4 -6 -7 -287 -8 -624 0 -452 2 -613 11
-613 24 0 339 150 410 195 63 41 677 248 829 280 34 8 167 34 217 43 26 5 49
7 52 5 5 -5 -40 -67 -74 -103 -8 -9 -37 -29 -64 -44 -26 -16 -56 -35 -66 -45
-374 -352 -679 -657 -935 -936 -55 -59 -105 -113 -110 -119 -6 -6 -42 -47 -80
-91 -60 -68 -104 -118 -150 -169 -5 -6 -35 -40 -65 -76 -30 -36 -63 -74 -74
-85 -48 -52 -95 -139 -115 -217 -183 -692 -412 -1223 -773 -1793 -67 -105
-221 -331 -245 -360 -4 -5 -26 -35 -48 -65 -22 -30 -42 -57 -45 -60 -3 -3 -21
-25 -40 -50 -103 -136 -387 -464 -515 -596 -127 -131 -400 -426 -404 -436 -2
-6 5 -8 15 -4 11 3 64 12 119 21 55 9 125 20 155 25 30 5 73 12 95 15 22 3 51
8 65 11 55 10 69 13 101 18 103 17 270 52 374 76 50 12 97 23 105 25 8 2 35 9
60 16 25 7 53 14 63 16 49 9 379 116 519 168 405 152 852 386 1167 613 221
158 407 317 607 516 218 219 320 338 502 586 51 69 96 130 101 136 5 6 54 79
109 161 234 350 451 730 676 1183 105 214 126 257 211 445 39 85 106 232 163
355 52 113 325 662 380 765 142 266 265 484 329 585 80 125 244 365 355 520
65 91 166 231 223 311 58 81 121 159 140 173 35 27 44 56 25 86 -7 11 -31 15
-97 16 -48 1 -100 4 -115 7 -15 3 -62 8 -105 12 -43 4 -85 8 -93 10 -8 2 -55
7 -104 10 -48 4 -96 8 -105 10 -10 2 -69 6 -132 10 -63 4 -136 8 -164 10 -98
7 -633 23 -638 19z"/>
<path d="M11139 12333 c-73 -81 -398 -527 -537 -738 -51 -77 -96 -145 -101
-150 -4 -6 -10 -15 -12 -20 -2 -6 -34 -60 -71 -122 -37 -62 -97 -170 -134
-240 -61 -118 -89 -169 -152 -278 -75 -130 -178 -372 -222 -520 -12 -38 -31
-90 -42 -115 -11 -25 -21 -49 -22 -55 -1 -5 -4 -15 -8 -20 -33 -52 -213 -573
-233 -672 -2 -10 -12 -54 -23 -98 -25 -98 -58 -263 -67 -329 -3 -27 -8 -52 -9
-55 -2 -3 -7 -35 -10 -71 -4 -36 -9 -79 -11 -97 -10 -82 -16 -222 -16 -373 0
-251 7 -323 58 -635 20 -124 112 -434 178 -600 162 -409 434 -714 850 -955
155 -90 202 -96 224 -28 9 28 47 221 65 328 8 47 15 88 22 130 4 19 8 44 10
55 2 11 10 58 18 105 8 47 17 101 20 120 4 19 8 46 11 60 3 14 7 41 11 60 3
19 9 58 14 85 5 28 23 131 40 230 17 99 32 187 35 195 2 8 7 39 10 69 3 30 8
57 9 60 3 5 26 129 52 286 3 17 18 95 34 175 16 80 32 166 36 193 8 57 15 63
41 34 19 -21 36 -74 48 -157 3 -19 12 -69 20 -110 8 -41 26 -140 40 -220 14
-80 27 -156 30 -170 2 -14 13 -77 25 -140 11 -63 22 -126 25 -140 3 -14 14
-77 25 -140 11 -63 22 -126 25 -140 7 -36 15 -79 70 -400 63 -358 74 -424 80
-460 17 -105 33 -145 65 -153 57 -15 298 126 487 286 210 176 376 393 511 667
79 160 84 172 129 303 35 104 78 270 88 342 4 22 8 47 10 55 23 80 39 314 39
540 0 156 -11 397 -19 410 -1 3 -6 41 -10 84 -4 43 -8 87 -10 96 -2 9 -6 41
-10 71 -3 30 -8 61 -10 69 -2 8 -7 35 -10 60 -3 25 -10 65 -15 90 -5 25 -11
59 -14 75 -7 54 -57 258 -91 370 -45 149 -102 299 -164 426 -28 59 -69 158
-91 220 -23 63 -45 123 -50 134 -4 11 -23 58 -40 105 -38 101 -129 285 -169
343 -15 23 -57 98 -92 167 -53 105 -120 226 -159 290 -5 8 -28 47 -52 85 -23
39 -74 117 -112 175 -39 58 -75 112 -81 121 -21 35 -99 144 -105 149 -4 3 -20
25 -36 49 -46 69 -52 77 -198 269 -76 101 -147 187 -157 192 -32 18 -55 11
-90 -27z"/>
<path d="M2050 9203 c-51 -20 -427 -350 -630 -554 -189 -191 -372 -404 -485
-568 -27 -39 -74 -102 -103 -139 -150 -190 -296 -429 -453 -744 -49 -97 -93
-179 -99 -183 -15 -9 -12 -51 6 -65 8 -8 32 -13 52 -12 114 2 403 1 437 -2 22
-3 76 -8 120 -12 44 -4 82 -8 85 -9 3 0 32 -5 65 -9 33 -5 69 -10 80 -11 68
-10 300 -62 410 -92 72 -19 144 -39 160 -43 58 -15 281 -89 410 -135 168 -61
389 -156 802 -344 439 -199 547 -243 908 -372 321 -115 783 -237 1145 -303 47
-9 96 -18 109 -21 12 -2 42 -7 65 -9 22 -3 52 -8 66 -10 39 -7 169 -25 230
-31 30 -3 71 -8 90 -10 19 -2 69 -7 110 -11 41 -3 89 -8 105 -9 212 -21 804
-21 1010 -1 17 2 66 7 110 11 44 4 96 8 115 10 67 6 154 17 174 21 12 3 39 7
60 9 22 3 80 12 130 20 50 9 107 18 126 21 19 3 43 7 52 10 10 3 30 7 45 10
16 2 69 14 118 25 50 12 101 23 115 26 14 2 90 22 170 44 80 22 152 42 160 44
95 23 427 139 610 213 203 81 237 98 245 121 15 47 -18 72 -233 178 -317 156
-454 195 -727 208 -61 3 -132 7 -160 10 -27 2 -99 7 -160 10 -60 3 -123 8
-140 10 -16 2 -77 7 -135 10 -57 4 -112 8 -121 10 -9 2 -56 6 -105 10 -49 3
-100 8 -114 10 -14 2 -52 7 -85 10 -33 4 -78 8 -100 11 -22 2 -60 7 -85 9 -25
3 -76 10 -115 15 -38 5 -90 12 -115 15 -25 4 -56 8 -70 10 -14 2 -45 7 -70 10
-25 3 -97 15 -160 25 -63 11 -133 22 -155 25 -22 4 -47 8 -55 10 -8 3 -33 7
-55 10 -22 4 -47 8 -55 10 -8 3 -33 7 -55 10 -22 4 -65 13 -95 20 -30 7 -68
16 -85 18 -66 11 -349 81 -490 122 -420 123 -700 240 -1085 456 -63 36 -151
81 -195 101 -242 109 -644 220 -907 252 -27 3 -67 8 -90 11 -119 15 -192 18
-533 21 -203 2 -386 4 -405 4 l-35 1 35 31 c76 66 178 125 335 193 29 13 244
83 275 90 8 2 106 27 218 56 190 50 202 55 183 69 -51 39 -226 145 -234 142
-4 -1 -6 1 -3 6 3 4 -10 24 -27 44 -18 20 -75 85 -127 145 -52 59 -97 110
-100 113 -3 3 -34 39 -70 80 -36 41 -83 94 -105 118 -44 47 -148 205 -192 291
-47 90 -81 120 -123 104z"/>
<path d="M20274 9145 c-28 -22 -134 -164 -134 -180 0 -9 -65 -107 -86 -130
-17 -19 -134 -151 -207 -235 -17 -19 -49 -55 -71 -81 -102 -113 -162 -182
-169 -195 -4 -7 -24 -21 -43 -30 -45 -22 -116 -88 -144 -136 l-21 -37 23 -5
c115 -26 162 -36 186 -41 15 -3 61 -14 102 -25 41 -12 82 -22 90 -25 203 -51
476 -182 593 -283 27 -24 7 -29 -101 -25 -364 11 -611 5 -837 -22 -16 -2 -57
-7 -90 -10 -50 -6 -166 -27 -283 -51 -326 -67 -687 -207 -992 -384 -304 -178
-502 -256 -960 -384 -151 -42 -288 -77 -315 -81 -11 -1 -51 -10 -90 -20 -38
-9 -81 -19 -95 -21 -13 -3 -56 -12 -95 -20 -38 -8 -86 -17 -105 -20 -19 -3
-42 -7 -50 -9 -15 -4 -61 -13 -110 -20 -14 -2 -36 -6 -50 -9 -100 -19 -349
-56 -480 -71 -25 -3 -61 -7 -80 -10 -19 -2 -55 -7 -80 -10 -25 -3 -61 -7 -80
-10 -19 -2 -64 -7 -100 -10 -36 -3 -81 -8 -100 -10 -19 -2 -71 -7 -115 -10
-44 -3 -102 -8 -130 -10 -57 -5 -177 -14 -280 -20 -190 -12 -245 -16 -301 -21
-34 -3 -79 -7 -100 -9 -278 -24 -533 -97 -734 -209 -52 -29 -117 -64 -143 -77
-55 -26 -66 -38 -72 -72 -7 -35 26 -71 77 -86 24 -7 117 -42 208 -78 253 -100
570 -203 795 -260 33 -8 67 -16 75 -18 31 -9 96 -24 120 -29 14 -3 59 -12 100
-21 107 -24 100 -22 265 -50 83 -13 175 -27 205 -31 30 -3 65 -7 78 -9 13 -2
53 -7 90 -10 37 -4 85 -8 107 -10 245 -26 988 -26 1120 -1 11 2 60 7 109 11
50 4 97 8 105 10 9 1 47 6 84 10 37 3 76 8 85 10 9 1 42 6 72 9 30 4 66 8 80
11 60 10 286 48 300 50 13 1 66 12 150 31 14 3 39 7 55 10 17 3 48 10 70 16
22 5 49 12 60 14 11 2 90 22 175 44 85 22 163 42 173 45 44 10 207 62 363 115
248 84 474 176 769 312 143 66 287 133 321 148 61 28 321 140 464 199 41 17
79 31 83 31 5 0 23 6 40 14 18 8 73 29 122 46 50 17 108 38 130 46 43 15 230
73 255 79 8 2 80 20 160 40 79 20 154 39 165 41 11 2 43 8 70 14 28 5 66 12
85 15 19 3 60 10 90 15 66 11 115 17 195 25 33 3 78 9 100 12 22 3 147 7 278
7 164 2 241 6 249 14 9 9 -11 56 -80 194 -182 362 -286 536 -436 733 -34 44
-88 118 -121 165 -33 47 -63 90 -67 95 -43 57 -133 171 -137 175 -3 3 -28 32
-56 65 -109 133 -482 494 -700 679 -130 110 -190 130 -251 81z"/>
<path d="M8620 5509 c-29 -6 -288 -82 -780 -229 -160 -48 -808 -237 -840 -245
-8 -3 -112 -32 -230 -65 -172 -49 -465 -126 -550 -145 -101 -23 -260 -58 -280
-61 -14 -2 -38 -7 -55 -11 -40 -9 -34 -8 -90 -18 -27 -4 -54 -9 -60 -11 -9 -2
-28 -5 -110 -19 -33 -6 -89 -15 -120 -20 -11 -2 -40 -6 -65 -9 -66 -9 -121
-16 -155 -20 -70 -10 -180 -21 -340 -33 -199 -16 -765 -8 -885 11 -14 3 -54 7
-90 11 -36 3 -74 8 -85 10 -11 2 -40 7 -65 10 -43 5 -60 8 -120 20 -14 3 -41
8 -60 11 -133 24 -291 63 -415 101 -168 51 -216 69 -266 99 -35 21 -74 36
-103 38 -25 3 -51 8 -57 12 -6 3 -3 -5 6 -20 10 -14 14 -26 11 -26 -19 0 68
-100 191 -221 190 -187 354 -321 543 -445 108 -70 135 -86 325 -189 70 -38
280 -125 400 -166 190 -64 405 -113 590 -135 28 -3 56 -7 63 -10 19 -6 279
-18 392 -18 104 0 350 12 390 18 14 3 50 7 80 10 30 4 66 8 80 10 14 3 57 9
95 15 460 70 1010 234 1545 461 215 91 689 326 905 450 22 13 67 38 100 57 33
19 67 38 75 43 8 5 78 47 155 93 171 102 366 225 545 342 74 49 160 98 190
108 30 10 57 20 59 22 2 2 -28 13 -65 24 -94 29 -122 26 -404 -46 -251 -64
-657 -185 -745 -223 -11 -4 -60 -22 -109 -39 -48 -17 -147 -57 -220 -88 -193
-82 -267 -106 -366 -119 l-45 -6 65 43 c87 56 388 236 475 284 39 21 102 56
140 77 39 21 162 84 274 140 113 56 200 103 195 104 -59 16 -84 19 -114 13z"/>
<path d="M13670 5508 l-35 -10 85 -41 c465 -225 632 -316 865 -470 158 -105
160 -107 87 -102 -27 2 -104 26 -176 55 -459 183 -998 355 -1296 415 -8 2 -49
10 -90 18 -75 16 -150 16 -203 0 l-29 -9 54 -35 c65 -44 294 -193 363 -236
181 -114 405 -251 435 -267 19 -10 46 -26 60 -36 14 -9 50 -31 80 -47 30 -17
134 -74 230 -128 400 -222 840 -421 1260 -572 124 -44 459 -146 535 -163 22
-5 99 -22 170 -39 72 -16 144 -32 160 -36 58 -11 196 -35 233 -41 20 -3 47 -7
60 -9 13 -2 53 -7 90 -11 37 -3 74 -8 82 -9 122 -23 712 -23 783 0 7 2 37 6
67 10 223 23 586 119 768 201 29 13 55 24 57 24 14 0 209 97 301 151 308 176
585 403 843 688 42 47 84 93 94 103 9 10 17 20 17 22 0 2 -26 3 -57 2 -46 -2
-72 -10 -123 -38 -115 -64 -532 -180 -765 -214 -16 -2 -41 -6 -55 -9 -14 -3
-44 -8 -66 -11 -23 -2 -51 -7 -62 -9 -12 -2 -52 -7 -89 -10 -37 -4 -79 -8 -93
-11 -159 -25 -815 -25 -1014 1 -16 2 -59 6 -95 10 -36 3 -100 11 -141 16 -41
6 -89 12 -107 14 -17 2 -60 9 -95 15 -34 7 -79 14 -98 16 -19 3 -42 7 -50 9
-8 2 -31 7 -50 10 -254 43 -794 177 -1352 336 -315 90 -308 88 -833 244 -214
64 -398 118 -407 121 -10 2 -26 6 -35 8 -10 2 -72 21 -137 41 -134 40 -175 47
-226 33z"/>
<path d="M10330 5378 c-41 -10 -88 -20 -105 -23 -16 -3 -55 -13 -85 -21 -30
-9 -59 -17 -65 -19 -5 -1 -17 -4 -25 -7 -8 -4 -63 -22 -123 -42 -315 -106
-588 -269 -791 -472 -76 -76 -169 -189 -206 -250 -13 -21 -29 -44 -36 -51 -36
-37 -183 -373 -209 -480 -45 -178 -73 -329 -80 -438 -4 -44 -8 -91 -11 -105
-2 -14 -4 -110 -5 -214 0 -148 3 -192 14 -203 19 -19 43 -7 58 30 7 18 32 52
56 76 23 24 67 80 98 125 109 160 339 482 354 496 4 3 26 32 51 65 25 33 47
62 50 65 3 3 30 37 60 75 30 39 57 72 60 75 3 3 27 32 55 65 314 381 767 854
1082 1132 18 15 37 41 43 56 9 26 7 32 -21 58 -29 27 -38 30 -88 28 -31 -2
-90 -11 -131 -21z"/>
<path d="M11855 5389 c-12 -6 -26 -19 -33 -30 -19 -29 4 -63 95 -144 185 -165
633 -621 800 -815 21 -24 47 -54 58 -65 11 -12 38 -44 60 -71 21 -27 42 -51
45 -54 16 -14 328 -412 450 -575 25 -33 47 -62 50 -65 3 -3 44 -57 92 -120 47
-63 120 -160 162 -215 42 -55 81 -116 86 -136 9 -32 52 -71 64 -58 3 3 8 27
11 54 4 28 8 61 11 75 6 40 6 350 -1 405 -42 347 -133 621 -291 875 -242 392
-596 675 -1041 834 -187 66 -567 131 -618 105z"/>
</g>
</svg>
